<!-- app/assets/brand/emblem.svg -->
<svg xmlns="http://www.w3.org/2000/svg" width="256" height="256" viewBox="0 0 256 256">
  <defs>
    <linearGradient id="g" x1="0" y1="0" x2="1" y2="1">
      <stop offset="0" stop-color="#FFD24D"/>
      <stop offset="1" stop-color="#FFB11A"/>
    </linearGradient>
    <filter id="s" x="-20%" y="-20%" width="140%" height="140%">
      <feDropShadow dx="0" dy="6" stdDeviation="8" flood-color="#000" flood-opacity="0.35"/>
    </filter>
  </defs>
  <!-- shield -->
  <path filter="url(#s)" fill="url(#g)"
        d="M128 20c25 18 58 26 92 26v76c0 62-41 98-92 114-51-16-92-52-92-114V46c34 0 67-8 92-26z"/>
  <!-- crown -->
  <path fill="#1b1606" opacity=".2"
        d="M79 76l15 16 18-16 16 16 18-16 15 16 16-14c2 5 3 10 3 16 0 28-31 52-72 52S58 120 58 92c0-6 1-11 3-16l18 14z"/>
  <!-- E letter -->
  <path fill="#0b1220"
        d="M88 98h80v16H104v16h56v16H88V98z"/>
  <path fill="#0b1220" d="M88 82h80v12H88z" opacity=".85"/>
</svg>